<?xml version="1.0" encoding="utf-8"?>
<?xml-stylesheet type="text/xsl" href="rss1.xsl"?>
<rss version="2.0" xmlns:atom="http://www.w3.org/2005/Atom" xmlns:content="http://purl.org/rss/1.0/modules/content/" xmlns:dc="http://purl.org/dc/elements/1.1/" xmlns:media="http://search.yahoo.com/mrss/">
<channel>
 <title>Getty</title>
 <link>http://www.gettyimg.com/</link>
 <atom:link href="http://www.gettyimg.com/" rel="self" type="application/rss+xml" />

 
                <item>
                <title><![CDATA[【UPSCALED】Tiësto &amp; Ava Max - The Motto [4K AI Upscale HEVC 10-bit / PCM 24-bit / DD+ Dolby Atmos]]]></title>
                <link><![CDATA[https://sharemania.us/threads/ti%C3%ABsto-ava-max-the-motto-4k-ai-upscale-hevc-10-bit-pcm-24-bit-dd-dolby-atmos.219714/]]></link>
                <description><![CDATA[<article>
<blockquote class="messageText SelectQuoteContainer ugc baseHtml">
<b><img src="https://images2.imgbox.com/7c/6b/8is633t1_o.jpg" class="bbCodeImage LbImage" alt="[​IMG]" data-url="https://images2.imgbox.com/7c/6b/8is633t1_o.jpg" style=""> <br>
<br>
Genre: <span style="color: #0059b3">Electronic, Pop</span> <br>
Style: <span style="color: #0059b3">Dance-pop, House</span> <br>
Year: <span style="color: #0059b3">2021</span><br>
Video Source: <span style="color: #0059b3">Apple Music, thanks CAPRiCE24</span><br>
Audio Source: <span style="color: #0059b3">Qobuz &amp; Apple Music, thanks Yennefer &amp; BbbDdd345</span></b><br>
<br>
"<b>The Motto</b>" is a song by Dutch DJ Tiësto and American singer and songwriter Ava Max from the former's eighth studio album, <i>DRIVE</i> (2023). The song was written by Tiësto, Max, Claudia Valentina, Lostboy, Pablo Bowman and Sarah Blanchard, while produced by the DJ and Lostboy. It was released as the third single from the album for digital download and streaming in various countries by Atlantic and Musical Freedom on 4 November 2021. "The Motto" is a fusion of dance, EDM and pop song, showcasing empowering lyrics that emphasize "doing you, having a good time and letting the world know". Upon its release, the release of the song was well-received by music critics, who praised the music and production of the song, the collaborative effort between the artists and the vocal delivery of Max. At the 2022 MTV Europe Music Awards, the song received a nomination in the category for the Best Collaboration.<br>
<br>
"The Motto" achieved commercial success, reaching the number one position in the Czech Republic and Poland as well as the top 10 in 18 other countries, including in Belgium, Canada, Germany, Netherlands and Switzerland. The song also reached number one on the US <i>Billboard</i> Dance/Mix Show Airplay chart and number two on the Dance/Electronic Songs ranking. It was certified gold in four countries as well as platinum in seven countries, including in Brazil, Portugal and the United States. The song also received double platinum certifications from Music Canada in Canada and the Polish Society of the Phonographic Industry (ZPAV) in Poland.<br>
<br>
To accompany the release, a music video for "The Motto" debuted to Tiësto's official YouTube channel on 4 November 2021, with a broadcast premiere on MTV Live, MTVU and ViacomCBS Times Square billboards. Directed by Christian Breslauer, the three-minute and 31-second video revolves around Tiësto and Ava Max time traveling and partying in the 1920s, with the end being inspired by the 1980 psychological horror film <i>The Shining</i>.<br>
For further promotion, a second music video for "The Motto" premiered on 11 March 2022 and was filmed in Los Angeles, California. The two-minute and 42-second video was directed and choreographed Charm La Donna and includes appearances from Cache Melvin, Caho Kitaori, Candice Savage, Darrion Gallegos, Gato Waddell, Honey Balenciaga, Joseph John Perez and Maggie Anne Wade as dancers. A third, drag version of the music video was published on Max's official YouTube channel, with scenes featuring appearances of Derrick Barry, Jaida Essence Hall, Kameron Michaels and Pangina Heals.<br>
<br>
<b>Release Info</b><br>
The video track is upscaled from 1080p to 4K with Topaz Video AI and converted to HEVC 10-bit.<br>
I've cut the intro to match it with the album version so I could sync the Atmos track to it.<br>
The PCM track is lossless (Qobuz Hi-Res 24-bit), synced with Adobe Audition.<br>
The Dolby Atmos track is lossy (Dolby Digital Plus), synced by muxing.<br>
The timed lyrics are synced and edited to match the music video.<br>
Enable the subtitles to see the lyrics.<br>
<br>
<div class="ToggleTriggerAnchor bbCodeSpoilerContainer">
<button type="button" class="button bbCodeSpoilerButton ToggleTrigger Tooltip JsOnly" data-target="> .SpoilerTarget"><span>Spoiler: <span class="SpoilerTitle">Media Info</span></span></button>
<div class="SpoilerTarget bbCodeSpoilerText">
<div class="bbCodeBlock bbCodeCode">
<div class="type">Code:</div>
<pre>General
Unique ID                      : 195757804913919486517431199578069902707 (0x934594F303FC0309A13F5FE85DDBA573)
Complete name                  : Tiësto &amp; Ava Max - The Motto.mkv
Format                         : Matroska
Format version                 : Version 4
File size                      : 226 MiB
Duration                       : 2 min 46 s
Overall bit rate               : 11.4 Mb/s
Encoded date                   : UTC 2023-04-23 18:23:45
Writing application            : mkvmerge v75.0.0 ('Goliath') 64-bit
Writing library                : libebml v1.4.4 + libmatroska v1.7.1

Video
ID                             : 1
Format                         : HEVC
Format/Info                    : High Efficiency Video Coding
Format profile                 : Main 10@L5@Main
Codec ID                       : V_MPEGH/ISO/HEVC
Duration                       : 2 min 46 s
Bit rate                       : 8 335 kb/s
Width                          : 3 840 pixels
Height                         : 1 912 pixels
Display aspect ratio           : 2.008
Frame rate mode                : Constant
Frame rate                     : 23.976 (24000/1001) FPS
Color space                    : YUV
Chroma subsampling             : 4:2:0
Bit depth                      : 10 bits
Bits/(Pixel*Frame)             : 0.047
Stream size                    : 165 MiB (73%)
Writing library                : x265 3.5+1-f0c1022b6:[Windows][GCC 10.2.0][64 bit] 10bit
Encoding settings              : cpuid=1111039 / frame-threads=5 / numa-pools=32 / wpp / no-pmode / no-pme / no-psnr / no-ssim / log-level=2 / input-csp=1 / input-res=3840x1912 / interlace=0 / total-frames=0 / level-idc=0 / high-tier=1 / uhd-bd=0 / ref=4 / no-allow-non-conformance / no-repeat-headers / annexb / no-aud / no-eob / no-eos / no-hrd / info / hash=0 / no-temporal-layers / open-gop / min-keyint=24 / keyint=240 / gop-lookahead=0 / bframes=4 / b-adapt=2 / b-pyramid / bframe-bias=0 / rc-lookahead=25 / lookahead-slices=4 / scenecut=40 / no-hist-scenecut / radl=0 / no-splice / no-intra-refresh / ctu=64 / min-cu-size=8 / rect / no-amp / max-tu-size=32 / tu-inter-depth=1 / tu-intra-depth=1 / limit-tu=0 / rdoq-level=2 / dynamic-rd=0.00 / no-ssim-rd / signhide / no-tskip / nr-intra=0 / nr-inter=0 / no-constrained-intra / strong-intra-smoothing / max-merge=3 / limit-refs=3 / limit-modes / me=3 / subme=3 / merange=57 / temporal-mvp / no-frame-dup / no-hme / weightp / no-weightb / no-analyze-src-pics / deblock=0:0 / sao / no-sao-non-deblock / rd=4 / selective-sao=4 / no-early-skip / rskip / no-fast-intra / no-tskip-fast / no-cu-lossless / no-b-intra / no-splitrd-skip / rdpenalty=0 / psy-rd=2.00 / psy-rdoq=1.00 / no-rd-refine / no-lossless / cbqpoffs=0 / crqpoffs=0 / rc=crf / crf=22.0 / qcomp=0.60 / qpstep=4 / stats-write=0 / stats-read=0 / ipratio=1.40 / pbratio=1.30 / aq-mode=2 / aq-strength=1.00 / cutree / zone-count=0 / no-strict-cbr / qg-size=32 / no-rc-grain / qpmax=69 / qpmin=0 / no-const-vbv / sar=1 / overscan=0 / videoformat=5 / range=0 / colorprim=1 / transfer=1 / colormatrix=1 / chromaloc=0 / display-window=0 / cll=0,0 / min-luma=0 / max-luma=1023 / log2-max-poc-lsb=8 / vui-timing-info / vui-hrd-info / slices=1 / no-opt-qp-pps / no-opt-ref-list-length-pps / no-multi-pass-opt-rps / scenecut-bias=0.05 / no-opt-cu-delta-qp / no-aq-motion / no-sbrc / no-hdr10 / no-hdr10-opt / no-dhdr10-opt / no-idr-recovery-sei / analysis-reuse-level=0 / analysis-save-reuse-level=0 / analysis-load-reuse-level=0 / scale-factor=0 / refine-intra=0 / refine-inter=0 / refine-mv=1 / refine-ctu-distortion=0 / no-limit-sao / ctu-info=0 / no-lowpass-dct / refine-analysis-type=0 / copy-pic=1 / max-ausize-factor=1.0 / no-dynamic-refine / no-single-sei / no-hevc-aq / no-svt / no-field / qp-adaptation-range=1.00 / scenecut-aware-qp=0conformance-window-offsets / right=0 / bottom=0 / decoder-max-rate=0 / no-vbv-live-multi-pass / no-mcstf
Default                        : Yes
Forced                         : No
Color range                    : Limited
Color primaries                : BT.709
Transfer characteristics       : BT.709
Matrix coefficients            : BT.709

Audio #1
ID                             : 2
Format                         : PCM
Format settings                : Little / Signed
Codec ID                       : A_PCM/INT/LIT
Duration                       : 2 min 46 s
Bit rate mode                  : Constant
Bit rate                       : 2 304 kb/s
Channel(s)                     : 2 channels
Sampling rate                  : 48.0 kHz
Frame rate                     : 25.002 FPS (1920 SPF)
Bit depth                      : 24 bits
Stream size                    : 45.6 MiB (20%)
Title                          : Lossless 24-bit 48 kHz
Language                       : English
Default                        : Yes
Forced                         : No

Audio #2
ID                             : 3
Format                         : E-AC-3 JOC
Format/Info                    : Enhanced AC-3 with Joint Object Coding
Commercial name                : Dolby Digital Plus with Dolby Atmos
Codec ID                       : A_EAC3
Duration                       : 2 min 44 s
Bit rate mode                  : Constant
Bit rate                       : 768 kb/s
Channel(s)                     : 6 channels
Channel layout                 : L R C LFE Ls Rs
Sampling rate                  : 48.0 kHz
Frame rate                     : 31.250 FPS (1536 SPF)
Compression mode               : Lossy
Delay relative to video        : 1 s 776 ms
Stream size                    : 15.1 MiB (7%)
Title                          : Dolby Digital Plus with Dolby Atmos
Language                       : English
Service kind                   : Complete Main
Default                        : No
Forced                         : No
Complexity index               : 16
Number of dynamic objects      : 15
Bed channel count              : 1 channel
Bed channel configuration      : LFE

Text
ID                             : 4
Format                         : UTF-8
Codec ID                       : S_TEXT/UTF8
Codec ID/Info                  : UTF-8 Plain Text
Duration                       : 2 min 33 s
Bit rate                       : 91 b/s
Frame rate                     : 0.327 FPS
Count of elements              : 50
Stream size                    : 1.71 KiB (0%)
Title                          : Lyrics
Language                       : English
Default                        : No
Forced                         : No
</pre>
</div></div>
</div><br>
<div class="bbCodeBlock bbCodeVfcHH HiddenContent">
<div class="attribution type">Hidden Content:</div>
<blockquote>You must reply before you can see the hidden data contained here.</blockquote>
</div>
<div class="messageTextEndMarker">&nbsp;</div>
</blockquote>
</article>]]></description>
                <author><![CDATA[ADHDerby]]></author>
                </item>

                </channel></rss>